<?xml version="1.0" encoding="iso-8859-1"?>
<!-- Generator: Adobe Illustrator 19.0.0, SVG Export Plug-In . SVG Version: 6.00 Build 0)  -->
<svg version="1.1" id="Layer_1" xmlns="http://www.w3.org/2000/svg" xmlns:xlink="http://www.w3.org/1999/xlink" x="0px" y="0px"
	 viewBox="0 0 512 512" style="enable-background:new 0 0 512 512;" xml:space="preserve">
<path style="fill:#F0F3FA;" d="M383.232,280.241c0,7.296-5.916,13.212-13.211,13.212H133.07c-7.297,0-13.212-5.917-13.212-13.212
	V263.45c0-7.297,5.916-13.213,13.212-13.213h236.951c7.296,0,13.211,5.917,13.211,13.213V280.241z"/>
<path style="fill:#F8981D;" d="M179.375,250.236h-46.307c-7.297,0-13.212,5.917-13.212,13.213v16.791
	c0,7.296,5.916,13.212,13.212,13.212h46.307V250.236z"/>
<path style="fill:#F04C35;" d="M370.021,250.236h-11.17v43.218h11.17c7.296,0,13.211-5.917,13.211-13.212v-16.791
	C383.232,256.153,377.317,250.236,370.021,250.236z"/>
<path style="opacity:0.19;fill:#202121;enable-background:new    ;" d="M149.617,271.846h233.617v-8.396
	c0-7.297-5.916-13.213-13.211-13.213H133.07c-7.297,0-13.212,5.917-13.212,13.213v16.791c0,7.296,5.916,13.212,13.212,13.212h16.547
	V271.846z"/>
<path style="fill:#F04C35;" d="M437.02,74.981C388.668,26.628,324.382,0,256.001,0S123.332,26.628,74.982,74.981
	C26.704,123.258,0.117,187.544,0.117,255.999c0,68.454,26.586,132.742,74.864,181.02C123.333,485.371,187.619,512,256.001,512
	c68.379,0,132.667-26.628,181.019-74.981c48.277-48.277,74.863-112.565,74.863-181.02S485.297,123.258,437.02,74.981z
	 M96.629,137.041L374.957,415.37c-34.075,25.48-76.191,39.477-118.959,39.477c-53.113,0-103.047-20.684-140.605-58.241
	C45.565,326.774,37.733,215.733,96.629,137.041z M415.371,374.959L137.043,96.628c34.072-25.477,76.189-39.475,118.959-39.475
	c53.117,0,103.051,20.684,140.608,58.24C466.437,185.221,474.271,296.263,415.371,374.959z"/>
<path style="fill:#C9D1E3;" d="M357.693,200.421h-13.871h-11.011h-44.843c-6.375,0-11.562-5.185-11.562-11.562
	c0-6.374,5.186-11.561,11.562-11.561h27.346h18.598h6.287c15.481,0,28.078-12.596,28.078-28.078c0-4.561-3.698-8.258-8.258-8.258
	c-4.562,0-8.259,3.697-8.259,8.258c0,6.376-5.187,11.562-11.561,11.562h-6.287h-18.598h-27.346
	c-15.481,0-28.078,12.594-28.078,28.077c0,15.483,12.596,28.078,28.078,28.078h44.843h11.011h13.871
	c6.375,0,11.562,5.189,11.562,11.561c0,4.562,3.698,8.259,8.259,8.259c4.561,0,8.258-3.697,8.258-8.259
	C385.77,213.016,373.175,200.421,357.693,200.421z"/>
<g>
</g>
<g>
</g>
<g>
</g>
<g>
</g>
<g>
</g>
<g>
</g>
<g>
</g>
<g>
</g>
<g>
</g>
<g>
</g>
<g>
</g>
<g>
</g>
<g>
</g>
<g>
</g>
<g>
</g>
</svg>
